<svg width="186" height="100" viewBox="0 0 186 100" fill="none" xmlns="http://www.w3.org/2000/svg">
<path fill-rule="evenodd" clip-rule="evenodd" d="M41.6309 51.9606C41.6309 54.4411 43.4048 55.9222 46.3764 55.9222C47.3917 55.9222 48.3005 55.7399 49.0782 55.3811L49.1341 55.3553V52.792L48.9981 52.8526C48.4518 53.095 47.9033 53.2077 47.2731 53.2077C46.397 53.2077 45.3532 52.948 45.3532 51.7088C45.3532 50.7588 45.9865 50.1851 47.2879 49.9553L49.1341 49.6624V47.2836L46.3337 47.6919C43.1693 48.1872 41.6309 49.5834 41.6309 51.9606Z" fill="#010201"/>
<path fill-rule="evenodd" clip-rule="evenodd" d="M54.4276 52.6475V46.7787C54.4276 43.2023 52.3502 41.3888 48.2537 41.3888C46.2932 41.3888 44.1947 41.8113 42.6399 42.5179L42.583 42.5437V46.6517H45.8854V44.4752C46.6568 44.3024 47.387 44.2149 48.0572 44.2149C49.8259 44.2149 50.6494 44.9847 50.6494 46.6386V55.5859H56.3044V52.6475H54.4276Z" fill="#010201"/>
<path fill-rule="evenodd" clip-rule="evenodd" d="M64.1896 52.8717C62.4362 52.8717 61.6538 51.917 61.6538 49.7758V41.7246H56.0547V44.663H57.8756V50.2521C57.8756 54.9381 60.6848 55.9217 63.0416 55.9217C64.0832 55.9217 64.9399 55.7537 65.6601 55.4086L65.7149 55.3822V52.4438L65.5726 52.5192C65.158 52.7399 64.6411 52.8717 64.1896 52.8717Z" fill="#010201"/>
<path fill-rule="evenodd" clip-rule="evenodd" d="M71.0081 52.6475V41.7249H65.2974V44.6632H67.2015V55.5858H72.9128V52.6475H71.0081Z" fill="#010201"/>
<path fill-rule="evenodd" clip-rule="evenodd" d="M79.622 55.9219C80.7242 55.9219 81.6631 55.7106 82.4139 55.2939L82.4634 55.2665V52.3681L82.3132 52.4682C81.7995 52.8102 81.2242 52.9835 80.6025 52.9835C78.5545 52.9835 77.2821 51.3687 77.2821 48.768C77.2821 46.1121 78.6162 44.327 80.6025 44.327C81.2727 44.327 81.8311 44.4951 82.3101 44.8407L82.4634 44.9508V41.9603L82.4128 41.9329C81.7558 41.5773 80.8685 41.3892 79.8464 41.3892C76.0292 41.3892 73.3638 44.4461 73.3638 48.8239C73.3638 53.1358 75.8201 55.9219 79.622 55.9219Z" fill="#010201"/>
<path fill-rule="evenodd" clip-rule="evenodd" d="M83.9502 41.7249V54.9014C83.9502 57.569 82.5788 58.9215 79.8738 58.9215C77.8891 58.9215 76.1225 58.5295 74.6251 57.756L74.4839 57.6833V60.8635L74.5292 60.892C75.6804 61.6185 77.447 61.9715 79.9302 61.9715C86.3991 61.9715 87.7569 58.0505 87.7569 54.7613V44.6632H89.6051V41.7249H83.9502Z" fill="#010201"/>
<path fill-rule="evenodd" clip-rule="evenodd" d="M96.6635 41.7249H90.7847V44.6632H92.8853V52.6475H90.7847V55.5858H98.5682V52.6475H96.6635V41.7249Z" fill="#010201"/>
<path fill-rule="evenodd" clip-rule="evenodd" d="M105.71 46.947C105.71 43.3111 103.982 41.389 100.712 41.389C99.7758 41.389 98.9317 41.5808 98.203 41.9596L98.1509 41.987V44.8838L98.2995 44.7879C98.6651 44.5534 99.0877 44.4391 99.5919 44.4391C101.254 44.4391 101.932 45.2874 101.932 47.3669V55.5862H107.642V52.6478H105.71V46.947Z" fill="#010201"/>
<path fill-rule="evenodd" clip-rule="evenodd" d="M114.785 52.6475V46.9468C114.785 44.4115 113.913 41.3888 109.759 41.3888C108.238 41.3888 107.081 41.7444 106.223 42.4763L106.16 42.53L106.204 42.6006C106.479 43.0458 106.842 43.7998 107.003 44.8609L107.027 45.0205L107.156 44.9236C107.579 44.6064 108.092 44.4389 108.639 44.4389C110.043 44.4389 110.978 44.9368 110.978 47.3667V55.5859H116.69V52.6475H114.785Z" fill="#010201"/>
<path fill-rule="evenodd" clip-rule="evenodd" d="M125.388 52.8717C122.416 52.8717 121.032 51.4786 121.032 48.4876C121.032 46.2737 121.904 44.7657 123.425 44.3516L123.496 44.3321V41.4343L123.389 41.4454C119.577 41.85 117.113 44.7241 117.113 48.7679C117.113 52.0313 118.481 55.9218 124.996 55.9218C127.199 55.9218 129.047 55.4908 130.341 54.6746L130.386 54.6462V51.5824L130.248 51.6493C128.658 52.4149 126.841 52.8717 125.388 52.8717Z" fill="#010201"/>
<path fill-rule="evenodd" clip-rule="evenodd" d="M125.116 41.4455L125.011 41.436V44.2806L125.088 44.2964C126.242 44.5388 126.865 45.3781 127.044 46.9345H122.519V49.4524H130.778V48.2912C130.778 44.2574 128.714 41.7622 125.116 41.4455Z" fill="#010201"/>
<path fill-rule="evenodd" clip-rule="evenodd" d="M137.724 41.7249H131.845V44.6632H133.945V52.6475H131.845V55.5858H139.684V52.6475H137.724V41.7249Z" fill="#010201"/>
<path fill-rule="evenodd" clip-rule="evenodd" d="M147.134 52.6475V47.059C147.134 44.9415 146.452 41.3888 141.884 41.3888C140.859 41.3888 140.002 41.5758 139.263 41.9599L139.211 41.9873V44.9051L139.357 44.8172C139.782 44.5627 140.242 44.4389 140.764 44.4389C142.561 44.4389 143.327 45.3646 143.327 47.5348V55.5859H148.982V52.6475H147.134Z" fill="#010201"/>
<path fill-rule="evenodd" clip-rule="evenodd" d="M154.361 50.7279V46.0382H150.555V51.0361C150.555 54.2674 151.97 55.5857 155.441 55.5857H157.722V52.6473H156.169C154.801 52.6473 154.361 52.181 154.361 50.7279Z" fill="#010201"/>
<path fill-rule="evenodd" clip-rule="evenodd" d="M154.361 41.7248V37.5793H150.555V41.7248H148.09V44.6632H157.722V41.7248H154.361Z" fill="#010201"/>
<mask id="mask0_519_1049" style="mask-type:alpha" maskUnits="userSpaceOnUse" x="7" y="22" width="172" height="69">
<path d="M7 22H178.315V90.7606H7V22Z" fill="white"/>
</mask>
<g mask="url(#mask0_519_1049)">
<path fill-rule="evenodd" clip-rule="evenodd" d="M178.315 22H155.482V25.7893H174.526V44.9237H178.315V22Z" fill="#28A9E1"/>
</g>
<path fill-rule="evenodd" clip-rule="evenodd" d="M30.0866 48.5208H26.3927V67.9135H7V71.6073H26.3927V91.0001H30.0866V48.5208Z" fill="#28A9E1"/>
<path fill-rule="evenodd" clip-rule="evenodd" d="M33.7803 67.9136V71.6074H49.4791V67.9136H33.7803Z" fill="#28A9E1"/>
</svg>
