<svg width="204" height="100" viewBox="0 0 204 100" fill="none" xmlns="http://www.w3.org/2000/svg">
<path d="M46.3358 29H28.4858V65.5799H46.3358V29Z" fill="#FDB917"/>
<path d="M5 29H23.105L5 47.7903V29Z" fill="#EF3829"/>
<path d="M5 70.9999V53.0137L23.8292 70.9999H5Z" fill="#0076BE"/>
<path d="M10.2896 49.4809L23.0468 36.7236L23.4245 62.6158L10.2896 49.4809Z" fill="#00A95C"/>
<path d="M59.6689 39.2742H62.2935V47.6728H62.51L71.0989 39.2742H74.7733L65.4036 48.2436L75.4163 58.6959H71.5779L62.5232 48.985H62.3066V58.6959H59.6821L59.6689 39.2742Z" fill="#414042"/>
<path d="M76.2199 52.2046C76.2133 51.2893 76.3964 50.3818 76.7579 49.5406C77.1057 48.7323 77.605 47.9974 78.2277 47.3754C80.9343 44.6911 85.3632 44.6911 88.0698 47.3754C88.6925 47.9974 89.1911 48.7323 89.5395 49.5406C89.9011 50.3818 90.0841 51.2893 90.0776 52.2046C90.0887 54.0214 89.367 55.7681 88.0763 57.0469C87.4353 57.6709 86.6801 58.1649 85.852 58.5035C84.1119 59.2167 82.1593 59.2167 80.4192 58.5035C79.6003 58.1623 78.8543 57.6682 78.2211 57.0469C76.9305 55.7681 76.2087 54.0214 76.2199 52.2046ZM78.8445 52.2046C78.8379 52.8253 78.9403 53.4427 79.1463 54.0286C79.3307 54.5562 79.6213 55.0411 79.9993 55.4525C80.368 55.8501 80.8148 56.167 81.3115 56.3842C82.4572 56.8422 83.7353 56.8422 84.8809 56.3842C85.3776 56.167 85.8245 55.8501 86.1932 55.4525C86.5712 55.0404 86.8612 54.5562 87.0462 54.0286C87.4484 52.8463 87.4484 51.5629 87.0462 50.3805C86.8612 49.853 86.5712 49.3687 86.1932 48.9567C85.8245 48.5591 85.3776 48.2421 84.8809 48.025C83.7353 47.567 82.4572 47.567 81.3115 48.025C80.8148 48.2421 80.368 48.5591 79.9993 48.9567C79.6213 49.3687 79.3313 49.853 79.1463 50.3805C78.9422 50.9664 78.8425 51.5839 78.851 52.2046H78.8445Z" fill="#414042"/>
<path d="M91.6226 45.6995H94.4768L98.3611 55.6597L102.095 45.6995H104.719L99.6143 58.7042H96.9176L91.6226 45.6995Z" fill="#414042"/>
<path d="M106.876 47.2625C107.573 46.6201 108.395 46.1287 109.291 45.819C110.171 45.5053 111.098 45.3433 112.033 45.34C112.865 45.3216 113.695 45.441 114.487 45.6943C115.109 45.8951 115.683 46.2212 116.174 46.6523C116.597 47.0348 116.929 47.5078 117.145 48.0367C117.354 48.5557 117.461 49.1108 117.46 49.6705V57.5704C117.46 57.9726 117.488 58.3381 117.545 58.6662H115.38C115.323 58.0054 115.294 57.3493 115.294 56.6978H115.242C114.769 57.4687 114.086 58.0881 113.273 58.4825C112.447 58.846 111.551 59.0231 110.649 59.0008C110.064 59.0028 109.483 58.9188 108.923 58.7515C108.398 58.6006 107.908 58.3486 107.48 58.01C107.069 57.6806 106.737 57.264 106.509 56.7896C105.969 55.5639 106.044 54.1513 106.712 52.9906C107.102 52.4099 107.63 51.9342 108.247 51.6061C108.959 51.2282 109.728 50.969 110.524 50.8384C111.443 50.6777 112.374 50.5989 113.306 50.6022H115.117V50.0511C115.115 49.7138 115.051 49.3805 114.927 49.0668C114.796 48.7335 114.6 48.4304 114.35 48.1745C114.081 47.8904 113.754 47.6666 113.392 47.5184C112.954 47.353 112.488 47.2723 112.02 47.2821C111.6 47.2762 111.182 47.3228 110.774 47.4199C110.44 47.5039 110.115 47.6181 109.802 47.7611C109.521 47.8917 109.255 48.0525 109.009 48.2401L108.352 48.7585L106.876 47.2625ZM113.844 52.4197C113.246 52.4191 112.648 52.4499 112.053 52.5116C111.482 52.5654 110.921 52.6887 110.38 52.879C109.916 53.0378 109.494 53.3003 109.146 53.6467C108.824 53.9853 108.651 54.4393 108.667 54.9065C108.601 55.5541 108.894 56.1886 109.428 56.56C110.049 56.9189 110.76 57.0901 111.476 57.0521C112.069 57.0698 112.659 56.953 113.201 56.7109C113.644 56.4937 114.032 56.1801 114.336 55.7923C114.635 55.434 114.859 55.0187 114.993 54.5719C115.116 54.1454 115.18 53.7038 115.183 53.2596V52.446L113.844 52.4197Z" fill="#414042"/>
<path d="M121.073 45.7041H123.54V47.7054H123.593C123.933 46.9803 124.502 46.3872 125.213 46.0191C126.03 45.5729 126.948 45.3472 127.877 45.363C128.488 45.361 129.096 45.4588 129.675 45.6517C130.238 45.8354 130.753 46.1405 131.184 46.544C131.636 46.979 131.988 47.5072 132.214 48.0925C132.487 48.8064 132.619 49.5662 132.602 50.3299V58.6957H130.135V51.0254C130.146 50.4986 130.062 49.9737 129.885 49.477C129.745 49.0852 129.522 48.729 129.229 48.4337C128.962 48.1725 128.639 47.975 128.284 47.8563C127.927 47.7375 127.552 47.6778 127.175 47.6791C126.69 47.6758 126.207 47.7605 125.752 47.9285C125.31 48.0932 124.914 48.3609 124.597 48.7093C124.247 49.1023 123.985 49.5649 123.829 50.0675C123.632 50.7046 123.538 51.3693 123.553 52.0359V58.7285H121.073V45.7041Z" fill="#414042"/>
<path d="M144.662 39.2742H147.286V56.2288H156.203V58.6959H144.655L144.662 39.2742Z" fill="#414042"/>
<path d="M158.303 47.2625C159 46.6201 159.822 46.1287 160.718 45.819C161.599 45.5053 162.526 45.3433 163.461 45.34C164.293 45.3216 165.122 45.441 165.915 45.6943C166.536 45.8951 167.11 46.2212 167.601 46.6523C168.025 47.0348 168.357 47.5078 168.572 48.0367C168.781 48.5557 168.888 49.1108 168.887 49.6705V57.5704C168.887 57.9726 168.915 58.3381 168.972 58.6662H166.774C166.717 58.0054 166.689 57.3493 166.689 56.6978H166.636C166.164 57.4687 165.481 58.0881 164.668 58.4825C163.842 58.846 162.946 59.0231 162.043 59.0008C161.459 59.0028 160.877 58.9188 160.318 58.7515C159.793 58.6006 159.303 58.3486 158.874 58.01C158.464 57.6806 158.132 57.264 157.903 56.7896C157.363 55.5639 157.439 54.1513 158.107 52.9906C158.497 52.4099 159.025 51.9342 159.642 51.6061C160.376 51.2328 161.168 50.9841 161.984 50.8712C162.903 50.7105 163.834 50.6317 164.766 50.635H166.577V50.0839C166.575 49.7466 166.511 49.4133 166.387 49.0997C166.257 48.7663 166.06 48.4632 165.81 48.2073C165.541 47.9232 165.214 47.6994 164.852 47.5512C164.414 47.3858 163.948 47.3051 163.48 47.315C163.06 47.309 162.642 47.3556 162.234 47.4527C161.9 47.5367 161.575 47.6509 161.263 47.7939C160.981 47.9245 160.715 48.0853 160.469 48.2729L159.813 48.7913L158.303 47.2625ZM165.265 52.446C164.665 52.4473 164.064 52.4801 163.467 52.5444C162.896 52.5982 162.335 52.7215 161.794 52.9118C161.33 53.0706 160.908 53.3331 160.561 53.6795C160.238 54.0181 160.065 54.4721 160.082 54.9393C160.026 55.5744 160.315 56.1932 160.836 56.56C161.456 56.9189 162.167 57.0901 162.883 57.0521C163.477 57.0698 164.067 56.953 164.609 56.7109C165.056 56.5042 165.451 56.1991 165.764 55.8185C166.062 55.4603 166.286 55.0449 166.42 54.5981C166.543 54.1716 166.608 53.73 166.61 53.2858V52.446H165.265Z" fill="#414042"/>
<path d="M172.468 37.9517H174.935V47.5575H174.987C175.456 46.8542 176.113 46.2971 176.884 45.95C177.702 45.5583 178.6 45.3562 179.508 45.3595C180.444 45.345 181.372 45.5215 182.238 45.8778C183.026 46.2079 183.737 46.7 184.324 47.3213C184.902 47.9486 185.348 48.6848 185.637 49.4866C185.953 50.352 186.111 51.268 186.102 52.1899C186.112 53.1072 185.954 54.0192 185.637 54.8801C185.344 55.6799 184.898 56.4154 184.324 57.0453C183.74 57.6739 183.029 58.1706 182.238 58.502C181.372 58.8582 180.444 59.0347 179.508 59.0203C178.621 59.0177 177.745 58.8208 176.943 58.4429C176.15 58.0945 175.468 57.5335 174.974 56.8222H174.922V58.6857H172.468V37.9517ZM179.219 56.7173C179.832 56.7271 180.439 56.611 181.004 56.3761C181.501 56.1589 181.948 55.842 182.316 55.4443C182.694 55.0323 182.984 54.5481 183.169 54.0205C183.572 52.8382 183.572 51.5547 183.169 50.3724C182.984 49.8448 182.694 49.3606 182.316 48.9486C181.948 48.5509 181.501 48.234 181.004 48.0168C179.859 47.5589 178.58 47.5589 177.435 48.0168C176.938 48.234 176.491 48.5509 176.122 48.9486C175.745 49.3606 175.455 49.8448 175.269 50.3724C174.867 51.5547 174.867 52.8382 175.269 54.0205C175.454 54.5481 175.745 55.0329 176.122 55.4443C176.491 55.842 176.938 56.1589 177.435 56.3761C178 56.611 178.607 56.7271 179.219 56.7173Z" fill="#414042"/>
<path d="M196.17 48.9644C195.87 48.5931 195.503 48.2814 195.087 48.0458C194.604 47.7873 194.06 47.6607 193.513 47.6784C192.982 47.664 192.456 47.7913 191.99 48.0458C191.581 48.2486 191.325 48.6718 191.334 49.1285C191.32 49.4769 191.454 49.8154 191.702 50.0602C191.957 50.3043 192.255 50.4998 192.581 50.6376C192.929 50.7865 193.291 50.8968 193.663 50.9657L194.654 51.1559C195.163 51.2773 195.663 51.4328 196.15 51.6218C196.59 51.7898 196.999 52.0319 197.357 52.337C197.697 52.6316 197.968 52.9964 198.151 53.4065C198.356 53.892 198.455 54.4156 198.44 54.9419C198.459 55.598 198.297 56.2469 197.974 56.8184C197.672 57.3282 197.26 57.7633 196.767 58.0913C196.253 58.4299 195.682 58.6727 195.081 58.8065C194.455 58.9515 193.814 59.0237 193.171 59.0231C192.202 59.0434 191.237 58.8761 190.33 58.531C189.448 58.1445 188.693 57.5166 188.152 56.72L190.015 55.1846C190.412 55.5888 190.852 55.9471 191.328 56.2541C191.874 56.5796 192.503 56.741 193.139 56.72C193.456 56.7187 193.772 56.6852 194.083 56.6216C194.382 56.5658 194.669 56.4641 194.936 56.3198C195.173 56.1925 195.379 56.0153 195.54 55.8014C195.697 55.5914 195.78 55.3355 195.776 55.0731C195.788 54.7378 195.665 54.4117 195.435 54.1676C195.203 53.9262 194.923 53.7339 194.615 53.6033C194.286 53.4636 193.946 53.354 193.598 53.2753L192.653 53.0719C192.123 52.9452 191.621 52.7983 191.144 52.6323C190.692 52.48 190.267 52.2589 189.884 51.9761C189.516 51.6992 189.215 51.3429 189.005 50.9329C188.771 50.4467 188.659 49.9106 188.677 49.3712C188.662 48.7538 188.809 48.1429 189.103 47.5997C189.38 47.1056 189.763 46.6798 190.225 46.353C190.709 46.0151 191.249 45.7644 191.82 45.6116C192.405 45.4475 193.01 45.3635 193.618 45.3622C194.484 45.3589 195.342 45.5263 196.144 45.8543C196.946 46.1804 197.621 46.7585 198.066 47.5012L196.17 48.9644Z" fill="#414042"/>
</svg>
